<?xml version="1.0" encoding="UTF-8"?>
<svg id="Layer_2" data-name="Layer 2" xmlns="http://www.w3.org/2000/svg" viewBox="0 0 975.8561 240.5992">
  <defs>
    <style>
      .cls-1 {
        fill: #fff;
      }
    </style>
  </defs>
  <g id="Layer_1-2" data-name="Layer 1">
    <g>
      <path class="cls-1" d="M614.0034,153.9323s12.2901,19.4634,25.3716,32.0223c27.4031,26.3084,58.6056,33.9965,96.7862,29.0135-29.7668-11.9258-50.1882-46.6627-70.4562-76.8409,26.1674-9.4938,49.0645-22.8596,51.2129-62.2867,2.3846-43.7538-23.4406-63.2279-52.9418-71.4808-12.1226-2.4477-23.7246-4.1341-36.2805-4.1307l-106.8347.0306.1144,194.6916,48.5087.2094.1424-49.6229,29.0304-.4191c5.8734-.085,11.4811,3.1355,15.3465,8.8137ZM569.5825,108.1442l.1657-65.3235,49.536-.2649c17.5102-.1749,46.8782,2.1446,47.4837,31.0199.537,25.586-20.2439,34.2243-36.2453,34.2959l-60.9402.2725Z"/>
      <path class="cls-1" d="M284.6879,194.9775l-67.3936-88.3072-20.7744-27.5782L272.1621.8534l-54.1337-.5091-54.9038,55.4109-26.4628,26.4843L136.423.0366l-49.1747.7226.072,194.2423,49.0384.1072.2143-59.0463,16.3589-16.3091c4.7507-4.7358,11.5178-4.1081,15.6891,1.4556l55.2635,73.7157,56.3774.0463,4.426.0067Z"/>
      <path class="cls-1" d="M433.8088.0638l-67.2323.2224-76.4787,194.6843,2.5038.0016,48.6457.0394,8.3892-21.4315c2.9663-7.5793,9.0108-12.3591,15.6164-12.3507l85.1612.1087,13.6567,33.8592,51.3801-.328L433.8088.0638ZM366.8796,124.9315l33.961-89.5931,35.5211,89.4465-69.4821.1466Z"/>
      <path class="cls-1" d="M926.362.8372c-14.6507,2.9045-20.3224,12.1361-28.0846,25.5187-5.2897,8.7625-10.8544,17.9836-16.1331,26.7286-18.9552,31.3213-37.2418,61.173-57.2533,91.4448-11.0394,16.6876-22.8317,33.2108-37.0919,47.1794-24.4656,25.3958-57.0999,37.3721-92.0308,30.6905-3.1517-.5063-5.3686-.9591-5.3686-.9591,0,0,.2751.7063.4372.8211,40.4589,28.6684,95.7283,18.6551,119.2976,4.1447,8.632-5.3142,20.2908-15.4014,27.122-22.8508C869.3654,169.2637,975.8561.1451,975.8561.1451c0,0-36.7925-.6038-49.2443.6519l-.2498.0401Z"/>
      <polygon class="cls-1" points="48.9814 194.8551 .0604 195.2269 0 .3912 49.0298 .1227 48.9814 194.8551"/>
      <path class="cls-1" d="M844.3457,99.9139l-29.4749,46.6446-43.9529-60.1287L709.0604.4232l53.3685-.0786c7.2257-.0106,14.119,3.8964,18.9819,10.7587l62.9348,88.8106Z"/>
    </g>
  </g>
</svg>